<svg xmlns="http://www.w3.org/2000/svg" xmlns:xlink="http://www.w3.org/1999/xlink" width="56.99" height="57" viewBox="0 0 56.99 57">
  <defs>
    <clipPath id="clip-path">
      <rect id="Rectangle_214" data-name="Rectangle 214" width="56.99" height="57" transform="translate(0 0.001)" fill="#fff"/>
    </clipPath>
  </defs>
  <g id="Group_243" data-name="Group 243" transform="translate(0 0)" clip-path="url(#clip-path)">
    <path id="Path_23107" data-name="Path 23107" d="M20.672,33.271a1.243,1.243,0,0,1-1.243-1.243V15.564H2.966a1.243,1.243,0,1,1,0-2.485H20.672a1.243,1.243,0,0,1,1.243,1.243V32.028a1.243,1.243,0,0,1-1.243,1.243" transform="translate(2.559 19.424)" fill="#fff"/>
    <path id="Path_23108" data-name="Path 23108" d="M1.243,37.577a1.243,1.243,0,0,1-.88-2.122L22.352,13.443A1.242,1.242,0,1,1,24.109,15.2L2.12,37.214a1.238,1.238,0,0,1-.877.363" transform="translate(0 19.425)" fill="#fff"/>
    <path id="Path_23109" data-name="Path 23109" d="M14.327,33.271a1.243,1.243,0,0,1-1.243-1.243V14.322a1.243,1.243,0,0,1,1.243-1.243h17.7a1.243,1.243,0,1,1,0,2.485H15.569V32.028a1.243,1.243,0,0,1-1.243,1.243" transform="translate(19.432 19.424)" fill="#fff"/>
    <path id="Path_23110" data-name="Path 23110" d="M36.314,37.577a1.248,1.248,0,0,1-.88-.363L13.448,15.2a1.242,1.242,0,1,1,1.757-1.757L37.194,35.454a1.243,1.243,0,0,1-.88,2.122" transform="translate(19.433 19.425)" fill="#fff"/>
    <path id="Path_23111" data-name="Path 23111" d="M32.028,21.924h-17.7a1.241,1.241,0,0,1-1.243-1.243V2.975a1.243,1.243,0,1,1,2.485,0V19.439H32.028a1.243,1.243,0,1,1,0,2.485" transform="translate(19.432 2.572)" fill="#fff"/>
    <path id="Path_23112" data-name="Path 23112" d="M14.327,24.5a1.241,1.241,0,0,1-.88-2.12L35.436.363A1.242,1.242,0,0,1,37.193,2.12L15.2,24.134a1.238,1.238,0,0,1-.877.363" transform="translate(19.431 -0.001)" fill="#fff"/>
    <path id="Path_23113" data-name="Path 23113" d="M20.672,21.924H2.966a1.243,1.243,0,1,1,0-2.485H19.43V2.975a1.243,1.243,0,1,1,2.485,0V20.681a1.243,1.243,0,0,1-1.243,1.243" transform="translate(2.559 2.572)" fill="#fff"/>
    <path id="Path_23114" data-name="Path 23114" d="M23.23,24.5a1.248,1.248,0,0,1-.88-.363L.364,2.12A1.242,1.242,0,1,1,2.121.363L24.11,22.377a1.241,1.241,0,0,1-.88,2.12" transform="translate(0.001 -0.001)" fill="#fff"/>
  </g>
</svg>
